<mxfile host="app.diagrams.net" modified="2022-10-05T10:36:51.304Z" agent="5.0 (Windows NT 6.3; Win64; x64) AppleWebKit/537.36 (KHTML, like Gecko) Chrome/105.0.0.0 Safari/537.36" etag="ROJiJCql2YI8Sc8WCP-2" version="20.4.0" type="github">
  <diagram id="prtHgNgQTEPvFCAcTncT" name="Page-1">
    <mxGraphModel dx="2609" dy="742" grid="1" gridSize="10" guides="1" tooltips="1" connect="1" arrows="1" fold="1" page="1" pageScale="1" pageWidth="827" pageHeight="1169" math="0" shadow="0">
      <root>
        <mxCell id="0" />
        <mxCell id="1" parent="0" />
        <mxCell id="dNxyNK7c78bLwvsdeMH5-11" value="Organization Structural Diagram" style="swimlane;html=1;startSize=20;horizontal=1;containerType=tree;glass=0;" parent="1" vertex="1">
          <mxGeometry x="-760" y="100" width="1380" height="700" as="geometry" />
        </mxCell>
        <mxCell id="34d6Ay8lLd3whwP28Z-2-1" value="&lt;font style=&quot;font-size: 14px;&quot;&gt;&lt;u style=&quot;&quot;&gt;&lt;b&gt;Naghsh Film Client&lt;/b&gt;&lt;/u&gt;&lt;/font&gt;" style="rounded=1;whiteSpace=wrap;html=1;" vertex="1" parent="dNxyNK7c78bLwvsdeMH5-11">
          <mxGeometry x="610" y="65" width="160" height="70" as="geometry" />
        </mxCell>
        <mxCell id="34d6Ay8lLd3whwP28Z-2-2" value="" style="edgeStyle=orthogonalEdgeStyle;rounded=0;orthogonalLoop=1;jettySize=auto;html=1;" edge="1" source="34d6Ay8lLd3whwP28Z-2-1" target="34d6Ay8lLd3whwP28Z-2-3" parent="dNxyNK7c78bLwvsdeMH5-11">
          <mxGeometry relative="1" as="geometry">
            <Array as="points">
              <mxPoint x="670" y="155" />
              <mxPoint x="450" y="155" />
            </Array>
          </mxGeometry>
        </mxCell>
        <mxCell id="34d6Ay8lLd3whwP28Z-2-3" value="&lt;b&gt;&lt;font style=&quot;font-size: 14px;&quot;&gt;&lt;u&gt;RoseFilm Company&lt;br&gt;RFC&lt;br&gt;&lt;/u&gt;&lt;/font&gt;&lt;/b&gt;" style="rounded=1;whiteSpace=wrap;html=1;" vertex="1" parent="dNxyNK7c78bLwvsdeMH5-11">
          <mxGeometry x="350" y="185" width="160" height="70" as="geometry" />
        </mxCell>
        <mxCell id="34d6Ay8lLd3whwP28Z-2-4" value="" style="edgeStyle=orthogonalEdgeStyle;rounded=0;orthogonalLoop=1;jettySize=auto;html=1;exitX=0.5;exitY=1;exitDx=0;exitDy=0;" edge="1" source="34d6Ay8lLd3whwP28Z-2-1" target="34d6Ay8lLd3whwP28Z-2-5" parent="dNxyNK7c78bLwvsdeMH5-11">
          <mxGeometry relative="1" as="geometry">
            <Array as="points">
              <mxPoint x="670" y="135" />
              <mxPoint x="670" y="155" />
              <mxPoint x="890" y="155" />
            </Array>
          </mxGeometry>
        </mxCell>
        <mxCell id="34d6Ay8lLd3whwP28Z-2-5" value="&lt;font style=&quot;font-size: 14px;&quot;&gt;&lt;b&gt;&lt;u&gt;DecoFoil Company&lt;br&gt;DFC&lt;br&gt;&lt;/u&gt;&lt;/b&gt;&lt;/font&gt;" style="rounded=1;whiteSpace=wrap;html=1;" vertex="1" parent="dNxyNK7c78bLwvsdeMH5-11">
          <mxGeometry x="810" y="185" width="150" height="70" as="geometry" />
        </mxCell>
        <mxCell id="34d6Ay8lLd3whwP28Z-2-10" value="" style="edgeStyle=orthogonalEdgeStyle;rounded=0;orthogonalLoop=1;jettySize=auto;html=1;exitX=0.5;exitY=1;exitDx=0;exitDy=0;" edge="1" target="34d6Ay8lLd3whwP28Z-2-11" source="34d6Ay8lLd3whwP28Z-2-5" parent="dNxyNK7c78bLwvsdeMH5-11">
          <mxGeometry relative="1" as="geometry">
            <mxPoint x="665" y="175" as="sourcePoint" />
            <Array as="points">
              <mxPoint x="885" y="285" />
              <mxPoint x="885" y="285" />
            </Array>
          </mxGeometry>
        </mxCell>
        <mxCell id="34d6Ay8lLd3whwP28Z-2-67" style="edgeStyle=orthogonalEdgeStyle;rounded=0;orthogonalLoop=1;jettySize=auto;html=1;entryX=0.5;entryY=0;entryDx=0;entryDy=0;fontSize=14;" edge="1" parent="dNxyNK7c78bLwvsdeMH5-11" source="34d6Ay8lLd3whwP28Z-2-11" target="34d6Ay8lLd3whwP28Z-2-65">
          <mxGeometry relative="1" as="geometry" />
        </mxCell>
        <mxCell id="34d6Ay8lLd3whwP28Z-2-68" style="edgeStyle=orthogonalEdgeStyle;rounded=0;orthogonalLoop=1;jettySize=auto;html=1;entryX=0.5;entryY=0;entryDx=0;entryDy=0;fontSize=14;" edge="1" parent="dNxyNK7c78bLwvsdeMH5-11" source="34d6Ay8lLd3whwP28Z-2-11" target="34d6Ay8lLd3whwP28Z-2-64">
          <mxGeometry relative="1" as="geometry" />
        </mxCell>
        <mxCell id="34d6Ay8lLd3whwP28Z-2-69" style="edgeStyle=orthogonalEdgeStyle;rounded=0;orthogonalLoop=1;jettySize=auto;html=1;fontSize=14;" edge="1" parent="dNxyNK7c78bLwvsdeMH5-11" source="34d6Ay8lLd3whwP28Z-2-11" target="34d6Ay8lLd3whwP28Z-2-61">
          <mxGeometry relative="1" as="geometry">
            <Array as="points">
              <mxPoint x="885" y="380" />
              <mxPoint x="1023" y="380" />
            </Array>
          </mxGeometry>
        </mxCell>
        <mxCell id="34d6Ay8lLd3whwP28Z-2-70" style="edgeStyle=orthogonalEdgeStyle;rounded=0;orthogonalLoop=1;jettySize=auto;html=1;fontSize=14;" edge="1" parent="dNxyNK7c78bLwvsdeMH5-11" source="34d6Ay8lLd3whwP28Z-2-11" target="34d6Ay8lLd3whwP28Z-2-62">
          <mxGeometry relative="1" as="geometry">
            <Array as="points">
              <mxPoint x="885" y="370" />
              <mxPoint x="1153" y="370" />
            </Array>
          </mxGeometry>
        </mxCell>
        <mxCell id="34d6Ay8lLd3whwP28Z-2-71" style="edgeStyle=orthogonalEdgeStyle;rounded=0;orthogonalLoop=1;jettySize=auto;html=1;fontSize=14;" edge="1" parent="dNxyNK7c78bLwvsdeMH5-11" source="34d6Ay8lLd3whwP28Z-2-11" target="34d6Ay8lLd3whwP28Z-2-63">
          <mxGeometry relative="1" as="geometry">
            <Array as="points">
              <mxPoint x="885" y="390" />
              <mxPoint x="1293" y="390" />
            </Array>
          </mxGeometry>
        </mxCell>
        <mxCell id="34d6Ay8lLd3whwP28Z-2-11" value="&lt;font style=&quot;font-size: 14px;&quot;&gt;&lt;b&gt;&lt;u&gt;DecoFoil Plant - 1&lt;br&gt;DFP-1&lt;br&gt;&lt;/u&gt;&lt;/b&gt;&lt;/font&gt;" style="rounded=1;whiteSpace=wrap;html=1;" vertex="1" parent="dNxyNK7c78bLwvsdeMH5-11">
          <mxGeometry x="810" y="295" width="150" height="70" as="geometry" />
        </mxCell>
        <mxCell id="34d6Ay8lLd3whwP28Z-2-16" value="" style="edgeStyle=orthogonalEdgeStyle;rounded=0;orthogonalLoop=1;jettySize=auto;html=1;exitX=0.5;exitY=1;exitDx=0;exitDy=0;" edge="1" target="34d6Ay8lLd3whwP28Z-2-17" source="34d6Ay8lLd3whwP28Z-2-3" parent="dNxyNK7c78bLwvsdeMH5-11">
          <mxGeometry relative="1" as="geometry">
            <mxPoint x="665" y="175" as="sourcePoint" />
            <Array as="points">
              <mxPoint x="420" y="275" />
              <mxPoint x="420" y="275" />
            </Array>
          </mxGeometry>
        </mxCell>
        <mxCell id="34d6Ay8lLd3whwP28Z-2-51" style="edgeStyle=orthogonalEdgeStyle;rounded=0;orthogonalLoop=1;jettySize=auto;html=1;fontSize=14;" edge="1" parent="dNxyNK7c78bLwvsdeMH5-11" source="34d6Ay8lLd3whwP28Z-2-17">
          <mxGeometry relative="1" as="geometry">
            <mxPoint x="330" y="425" as="targetPoint" />
            <Array as="points">
              <mxPoint x="430" y="395" />
              <mxPoint x="330" y="395" />
            </Array>
          </mxGeometry>
        </mxCell>
        <mxCell id="34d6Ay8lLd3whwP28Z-2-52" style="edgeStyle=orthogonalEdgeStyle;rounded=0;orthogonalLoop=1;jettySize=auto;html=1;fontSize=14;" edge="1" parent="dNxyNK7c78bLwvsdeMH5-11" target="34d6Ay8lLd3whwP28Z-2-40">
          <mxGeometry relative="1" as="geometry">
            <mxPoint x="430" y="380" as="sourcePoint" />
            <Array as="points">
              <mxPoint x="440" y="410" />
              <mxPoint x="440" y="410" />
            </Array>
          </mxGeometry>
        </mxCell>
        <mxCell id="34d6Ay8lLd3whwP28Z-2-53" style="edgeStyle=orthogonalEdgeStyle;rounded=0;orthogonalLoop=1;jettySize=auto;html=1;entryX=0.5;entryY=0;entryDx=0;entryDy=0;fontSize=14;" edge="1" parent="dNxyNK7c78bLwvsdeMH5-11" source="34d6Ay8lLd3whwP28Z-2-17" target="34d6Ay8lLd3whwP28Z-2-41">
          <mxGeometry relative="1" as="geometry">
            <Array as="points">
              <mxPoint x="430" y="390" />
              <mxPoint x="610" y="390" />
              <mxPoint x="610" y="425" />
            </Array>
          </mxGeometry>
        </mxCell>
        <mxCell id="34d6Ay8lLd3whwP28Z-2-60" style="edgeStyle=orthogonalEdgeStyle;rounded=0;orthogonalLoop=1;jettySize=auto;html=1;fontSize=14;" edge="1" parent="dNxyNK7c78bLwvsdeMH5-11" source="34d6Ay8lLd3whwP28Z-2-17" target="34d6Ay8lLd3whwP28Z-2-58">
          <mxGeometry relative="1" as="geometry">
            <Array as="points">
              <mxPoint x="430" y="400" />
              <mxPoint x="66" y="400" />
            </Array>
          </mxGeometry>
        </mxCell>
        <mxCell id="34d6Ay8lLd3whwP28Z-2-66" style="edgeStyle=orthogonalEdgeStyle;rounded=0;orthogonalLoop=1;jettySize=auto;html=1;entryX=0.5;entryY=0;entryDx=0;entryDy=0;fontSize=14;" edge="1" parent="dNxyNK7c78bLwvsdeMH5-11" source="34d6Ay8lLd3whwP28Z-2-17" target="34d6Ay8lLd3whwP28Z-2-57">
          <mxGeometry relative="1" as="geometry">
            <Array as="points">
              <mxPoint x="430" y="380" />
              <mxPoint x="200" y="380" />
            </Array>
          </mxGeometry>
        </mxCell>
        <mxCell id="34d6Ay8lLd3whwP28Z-2-17" value="&lt;b&gt;&lt;font style=&quot;font-size: 14px;&quot;&gt;&lt;u&gt;RoseFilm Plant - 1&lt;br&gt;RFP-1&lt;br&gt;&lt;/u&gt;&lt;/font&gt;&lt;/b&gt;" style="rounded=1;whiteSpace=wrap;html=1;" vertex="1" parent="dNxyNK7c78bLwvsdeMH5-11">
          <mxGeometry x="350" y="295" width="160" height="70" as="geometry" />
        </mxCell>
        <mxCell id="34d6Ay8lLd3whwP28Z-2-39" value="Raw Mat SLoc&lt;br&gt;RMS - 1" style="rounded=1;whiteSpace=wrap;html=1;fontSize=14;" vertex="1" parent="dNxyNK7c78bLwvsdeMH5-11">
          <mxGeometry x="270" y="425" width="120" height="60" as="geometry" />
        </mxCell>
        <mxCell id="34d6Ay8lLd3whwP28Z-2-40" value="Finished SLoc&lt;br&gt;FGS - 1" style="rounded=1;whiteSpace=wrap;html=1;fontSize=14;" vertex="1" parent="dNxyNK7c78bLwvsdeMH5-11">
          <mxGeometry x="400" y="425" width="120" height="60" as="geometry" />
        </mxCell>
        <mxCell id="34d6Ay8lLd3whwP28Z-2-41" value="SemiFinished SLoc&lt;br&gt;SFS - 1" style="rounded=1;whiteSpace=wrap;html=1;fontSize=14;" vertex="1" parent="dNxyNK7c78bLwvsdeMH5-11">
          <mxGeometry x="530" y="425" width="140" height="60" as="geometry" />
        </mxCell>
        <mxCell id="34d6Ay8lLd3whwP28Z-2-76" style="edgeStyle=orthogonalEdgeStyle;rounded=0;orthogonalLoop=1;jettySize=auto;html=1;fontSize=14;" edge="1" parent="dNxyNK7c78bLwvsdeMH5-11" source="34d6Ay8lLd3whwP28Z-2-57" target="34d6Ay8lLd3whwP28Z-2-72">
          <mxGeometry relative="1" as="geometry" />
        </mxCell>
        <mxCell id="34d6Ay8lLd3whwP28Z-2-57" value="Waste Sloc&lt;br&gt;WGS - 1" style="rounded=1;whiteSpace=wrap;html=1;fontSize=14;" vertex="1" parent="dNxyNK7c78bLwvsdeMH5-11">
          <mxGeometry x="140" y="425" width="120" height="60" as="geometry" />
        </mxCell>
        <mxCell id="34d6Ay8lLd3whwP28Z-2-58" value="Irregular SLoc&amp;nbsp;&lt;br&gt;IGS - 1" style="rounded=1;whiteSpace=wrap;html=1;fontSize=14;" vertex="1" parent="dNxyNK7c78bLwvsdeMH5-11">
          <mxGeometry x="6.5" y="425" width="120" height="60" as="geometry" />
        </mxCell>
        <mxCell id="34d6Ay8lLd3whwP28Z-2-61" value="Raw Mat SLoc&lt;br&gt;RMS - 1" style="rounded=1;whiteSpace=wrap;html=1;fontSize=14;" vertex="1" parent="dNxyNK7c78bLwvsdeMH5-11">
          <mxGeometry x="963.5" y="425" width="120" height="60" as="geometry" />
        </mxCell>
        <mxCell id="34d6Ay8lLd3whwP28Z-2-62" value="Finished SLoc&lt;br&gt;FGS - 1" style="rounded=1;whiteSpace=wrap;html=1;fontSize=14;" vertex="1" parent="dNxyNK7c78bLwvsdeMH5-11">
          <mxGeometry x="1093.5" y="425" width="120" height="60" as="geometry" />
        </mxCell>
        <mxCell id="34d6Ay8lLd3whwP28Z-2-63" value="SemiFinished SLoc&lt;br&gt;SFS - 1" style="rounded=1;whiteSpace=wrap;html=1;fontSize=14;" vertex="1" parent="dNxyNK7c78bLwvsdeMH5-11">
          <mxGeometry x="1223.5" y="425" width="140" height="60" as="geometry" />
        </mxCell>
        <mxCell id="34d6Ay8lLd3whwP28Z-2-75" style="edgeStyle=orthogonalEdgeStyle;rounded=0;orthogonalLoop=1;jettySize=auto;html=1;entryX=0.5;entryY=0;entryDx=0;entryDy=0;fontSize=14;" edge="1" parent="dNxyNK7c78bLwvsdeMH5-11" source="34d6Ay8lLd3whwP28Z-2-64" target="34d6Ay8lLd3whwP28Z-2-74">
          <mxGeometry relative="1" as="geometry" />
        </mxCell>
        <mxCell id="34d6Ay8lLd3whwP28Z-2-64" value="Waste Sloc&lt;br&gt;WGS - 1" style="rounded=1;whiteSpace=wrap;html=1;fontSize=14;" vertex="1" parent="dNxyNK7c78bLwvsdeMH5-11">
          <mxGeometry x="833.5" y="425" width="120" height="60" as="geometry" />
        </mxCell>
        <mxCell id="34d6Ay8lLd3whwP28Z-2-65" value="Irregular SLoc&amp;nbsp;&lt;br&gt;IGS - 1" style="rounded=1;whiteSpace=wrap;html=1;fontSize=14;" vertex="1" parent="dNxyNK7c78bLwvsdeMH5-11">
          <mxGeometry x="700" y="425" width="120" height="60" as="geometry" />
        </mxCell>
        <mxCell id="34d6Ay8lLd3whwP28Z-2-72" value="RFP - 1 - Waste Warehouse&amp;nbsp;&lt;br&gt;WW - 1" style="rounded=1;whiteSpace=wrap;html=1;fontSize=14;" vertex="1" parent="dNxyNK7c78bLwvsdeMH5-11">
          <mxGeometry x="80" y="530" width="400" height="60" as="geometry" />
        </mxCell>
        <mxCell id="34d6Ay8lLd3whwP28Z-2-74" value="DFP - 1 - Waste Warehouse&amp;nbsp;&lt;br&gt;WW - 1" style="rounded=1;whiteSpace=wrap;html=1;fontSize=14;" vertex="1" parent="dNxyNK7c78bLwvsdeMH5-11">
          <mxGeometry x="800" y="550" width="400" height="60" as="geometry" />
        </mxCell>
      </root>
    </mxGraphModel>
  </diagram>
</mxfile>
